<svg xmlns="http://www.w3.org/2000/svg"  viewBox="0 0 100 100" width="50px" height="50px"><path fill="#78ccd3" d="M69.268,81.654h-39c-6.6,0-12-5.4-12-12v-39c0-6.6,5.4-12,12-12h39c6.6,0,12,5.4,12,12v39C81.268,76.254,75.868,81.654,69.268,81.654z"/><path fill="#1f212b" d="M69.268,82.654h-39c-7.168,0-13-5.832-13-13v-39c0-7.168,5.832-13,13-13h39c7.168,0,13,5.832,13,13v39C82.268,76.822,76.436,82.654,69.268,82.654z M30.268,19.654c-6.065,0-11,4.935-11,11v39c0,6.065,4.935,11,11,11h39c6.065,0,11-4.935,11-11v-39c0-6.065-4.935-11-11-11H30.268z"/><path fill="#78ccd3" d="M76.768,48.154v18.663c0,5.685-4.652,10.337-10.337,10.337H33.105c-5.685,0-10.337-4.652-10.337-10.337V33.491c0-5.685,4.652-10.337,10.337-10.337h33.663"/><path fill="#1f212b" d="M66.431,77.654H33.105c-5.976,0-10.837-4.861-10.837-10.837V33.49c0-5.976,4.861-10.837,10.837-10.837h33.663c0.276,0,0.5,0.224,0.5,0.5s-0.224,0.5-0.5,0.5H33.105c-5.424,0-9.837,4.413-9.837,9.837v33.326c0,5.424,4.413,9.837,9.837,9.837h33.326c5.424,0,9.837-4.413,9.837-9.837V48.154c0-0.276,0.224-0.5,0.5-0.5s0.5,0.224,0.5,0.5v18.663C77.268,72.792,72.406,77.654,66.431,77.654z"/><path fill="#1f212b" d="M76.768 46.654c-.276 0-.5-.224-.5-.5v-4c0-.276.224-.5.5-.5s.5.224.5.5v4C77.268 46.43 77.044 46.654 76.768 46.654zM76.768 40.654c-.276 0-.5-.224-.5-.5v-2c0-.276.224-.5.5-.5s.5.224.5.5v2C77.268 40.43 77.044 40.654 76.768 40.654z"/><path fill="#39c1d7" d="M65.393,53.312c0.237-1.062,0.363-2.163,0.363-3.295c0-8.48-6.976-15.354-15.582-15.354c-0.911,0-1.8,0.078-2.666,0.224c-1.392-0.864-3.04-1.365-4.807-1.365c-4.991,0-9.036,3.986-9.036,8.903c0,1.643,0.455,3.183,1.242,4.504c-0.206,0.998-0.314,2.03-0.314,3.088c0,8.48,6.975,15.353,15.583,15.353c0.973,0,1.927-0.089,2.85-0.258c1.272,0.674,2.728,1.058,4.274,1.058c4.99,0,9.036-3.986,9.036-8.904C66.335,55.845,65.996,54.503,65.393,53.312z"/><path fill="#1f212b" d="M57.299,66.671c-1.513,0-3.014-0.358-4.353-1.036c-0.911,0.157-1.842,0.236-2.771,0.236c-8.868,0-16.083-7.112-16.083-15.854c0-1.011,0.097-2.019,0.286-3c-0.795-1.401-1.214-2.984-1.214-4.591c0-5.185,4.278-9.403,9.536-9.403c1.736,0,3.429,0.463,4.908,1.342c0.847-0.133,1.709-0.201,2.565-0.201c8.867,0,16.081,7.112,16.081,15.854c0,1.085-0.113,2.17-0.338,3.23c0.608,1.259,0.917,2.61,0.917,4.019C66.835,62.452,62.557,66.671,57.299,66.671z M53.026,64.613c0.081,0,0.161,0.02,0.234,0.058c1.234,0.654,2.631,1,4.039,1c4.707,0,8.536-3.77,8.536-8.404c0-1.311-0.299-2.565-0.889-3.728c-0.052-0.104-0.067-0.222-0.042-0.335c0.233-1.043,0.352-2.115,0.352-3.186c0-8.191-6.766-14.854-15.081-14.854c-0.863,0-1.732,0.073-2.583,0.218c-0.12,0.02-0.244-0.004-0.348-0.068c-1.359-0.844-2.93-1.29-4.543-1.29c-4.707,0-8.536,3.77-8.536,8.403c0,1.492,0.405,2.961,1.171,4.248c0.063,0.107,0.085,0.235,0.06,0.357c-0.201,0.974-0.303,1.979-0.303,2.987c0,8.19,6.767,14.854,15.083,14.854c0.926,0,1.854-0.084,2.76-0.25C52.965,64.615,52.995,64.613,53.026,64.613z"/><path fill="#fdfcee" d="M45.859,40.358L45.859,40.358c-1.169,0.479-2.08,1.178-2.702,2.077c-0.629,0.905-0.947,1.954-0.947,3.119c0,1.221,0.303,2.261,0.901,3.088c0.59,0.816,1.394,1.467,2.393,1.938c0.977,0.458,2.203,0.865,3.651,1.208c1.063,0.246,1.921,0.482,2.554,0.701c0.608,0.209,1.109,0.514,1.488,0.907c0.36,0.374,0.537,0.853,0.537,1.462c0,0.77-0.337,1.398-1.032,1.922c-0.709,0.536-1.652,0.809-2.806,0.809c-0.836,0-1.516-0.136-2.021-0.399c-0.503-0.263-0.895-0.6-1.168-0.999c-0.283-0.416-0.553-0.944-0.8-1.57c-0.221-0.573-0.495-1.018-0.817-1.318c-0.335-0.314-0.749-0.473-1.228-0.473c-0.581,0-1.07,0.2-1.453,0.599c-0.384,0.4-0.58,0.89-0.58,1.455c0,0.903,0.3,1.841,0.892,2.784c0.585,0.936,1.357,1.694,2.292,2.252C46.322,60.689,48,61.078,50,61.078c1.665,0,3.13-0.285,4.353-0.846c1.234-0.568,2.186-1.366,2.829-2.377c0.648-1.012,0.975-2.169,0.975-3.439c0-1.061-0.19-1.974-0.566-2.713c-0.374-0.737-0.904-1.354-1.569-1.835c-0.654-0.471-1.457-0.877-2.385-1.204c-0.914-0.326-1.949-0.625-3.079-0.893c-0.891-0.229-1.541-0.403-1.928-0.521c-0.377-0.116-0.754-0.279-1.12-0.481c-0.353-0.196-0.634-0.433-0.831-0.699c-0.188-0.253-0.279-0.546-0.279-0.898c0-0.573,0.283-1.054,0.864-1.477c0.603-0.439,1.416-0.659,2.413-0.659c1.076,0,1.857,0.199,2.326,0.593c0.484,0.404,0.903,0.982,1.25,1.711c0.3,0.572,0.572,0.969,0.832,1.225c0.281,0.274,0.683,0.413,1.201,0.413c0.566,0,1.046-0.222,1.427-0.66c0.381-0.437,0.573-0.937,0.573-1.488c0-0.572-0.147-1.164-0.436-1.758c-0.286-0.587-0.743-1.155-1.355-1.684c-0.609-0.526-1.382-0.954-2.299-1.269c-0.914-0.314-2.008-0.473-3.251-0.473C48.389,39.645,47.015,39.885,45.859,40.358z"/><path fill="#1f212b" d="M50,61.578c-2.092,0-3.854-0.413-5.241-1.227c-1.008-0.602-1.836-1.415-2.463-2.418c-0.642-1.023-0.968-2.049-0.968-3.049c0-0.698,0.242-1.304,0.719-1.802c0.479-0.5,1.09-0.752,1.814-0.752c0.603,0,1.145,0.21,1.569,0.608c0.374,0.348,0.691,0.854,0.942,1.503c0.23,0.585,0.481,1.081,0.746,1.47c0.228,0.331,0.56,0.613,0.987,0.837c0.436,0.227,1.038,0.342,1.789,0.342c1.04,0,1.884-0.238,2.505-0.708c0.568-0.429,0.833-0.914,0.833-1.524c0-0.479-0.126-0.833-0.396-1.116c-0.323-0.334-0.757-0.597-1.29-0.781c-0.615-0.213-1.457-0.444-2.505-0.687c-1.477-0.35-2.737-0.768-3.75-1.243c-1.077-0.507-1.946-1.213-2.586-2.098c-0.661-0.913-0.996-2.05-0.996-3.381c0-1.27,0.349-2.415,1.037-3.404c0.677-0.979,1.66-1.738,2.923-2.254l0,0c1.213-0.498,2.648-0.75,4.265-0.75c0.004,0,0.007,0,0.01,0c1.299,0,2.447,0.168,3.414,0.501c0.974,0.334,1.803,0.793,2.463,1.363c0.665,0.575,1.162,1.195,1.479,1.844c0.322,0.664,0.486,1.329,0.486,1.977c0,0.675-0.234,1.286-0.697,1.816c-0.472,0.544-1.096,0.832-1.803,0.832c-0.652,0-1.174-0.187-1.551-0.556c-0.303-0.297-0.605-0.738-0.926-1.35c-0.326-0.686-0.702-1.204-1.127-1.559c-0.371-0.312-1.064-0.477-2.005-0.477c-0.893,0-1.605,0.189-2.12,0.563c-0.59,0.429-0.658,0.817-0.658,1.072c0,0.244,0.058,0.434,0.181,0.6c0.155,0.21,0.381,0.398,0.672,0.56c0.335,0.185,0.681,0.333,1.025,0.44c0.381,0.116,1.023,0.288,1.903,0.514c1.15,0.273,2.204,0.579,3.123,0.906c0.972,0.343,1.816,0.771,2.509,1.27c0.732,0.529,1.312,1.207,1.723,2.014c0.412,0.808,0.621,1.797,0.621,2.939c0,1.37-0.354,2.617-1.054,3.708c-0.692,1.089-1.716,1.951-3.041,2.561C53.273,61.278,51.738,61.578,50,61.578z M43.861,53.33c-0.448,0-0.805,0.146-1.093,0.445c-0.296,0.31-0.44,0.672-0.44,1.109c0,0.809,0.274,1.656,0.815,2.518c0.542,0.868,1.257,1.57,2.125,2.088c1.228,0.721,2.82,1.087,4.731,1.087c1.593,0,2.987-0.27,4.144-0.801c1.147-0.528,2.027-1.265,2.616-2.19c0.595-0.929,0.896-1.995,0.896-3.17c0-0.983-0.172-1.819-0.512-2.486c-0.339-0.665-0.815-1.222-1.417-1.657c-0.615-0.443-1.375-0.826-2.259-1.138c-0.886-0.316-1.904-0.611-3.027-0.878c-0.91-0.233-1.566-0.41-1.958-0.529c-0.411-0.127-0.82-0.303-1.216-0.521c-0.418-0.232-0.751-0.514-0.991-0.839c-0.253-0.34-0.377-0.732-0.377-1.195c0-0.732,0.36-1.365,1.07-1.881c0.688-0.501,1.6-0.755,2.708-0.755c1.196,0,2.087,0.239,2.646,0.71c0.536,0.447,1,1.08,1.38,1.879c0.259,0.494,0.508,0.863,0.731,1.083c0.183,0.179,0.469,0.271,0.851,0.271c0.42,0,0.763-0.16,1.048-0.488c0.305-0.349,0.452-0.728,0.452-1.16c0-0.495-0.13-1.013-0.386-1.54c-0.256-0.527-0.671-1.04-1.232-1.524c-0.563-0.486-1.282-0.881-2.135-1.175c-0.861-0.296-1.901-0.446-3.089-0.446c-0.003,0-0.006,0-0.009,0c-1.486,0-2.794,0.227-3.887,0.675v0c-1.08,0.442-1.915,1.081-2.48,1.898c-0.569,0.82-0.858,1.773-0.858,2.835c0,1.116,0.271,2.056,0.807,2.794c0.539,0.747,1.279,1.345,2.2,1.779c0.95,0.445,2.146,0.84,3.554,1.174c1.08,0.25,1.956,0.491,2.603,0.715c0.683,0.234,1.25,0.582,1.685,1.032c0.448,0.468,0.676,1.076,0.676,1.809c0,0.924-0.414,1.705-1.229,2.322c-0.8,0.604-1.846,0.91-3.108,0.91c-0.914,0-1.672-0.153-2.252-0.456c-0.575-0.301-1.028-0.691-1.35-1.16c-0.308-0.452-0.594-1.013-0.853-1.67c-0.197-0.509-0.43-0.89-0.693-1.136C44.504,53.44,44.215,53.33,43.861,53.33z M45.86,40.358h0.01H45.86z"/></svg>